<?xml version="1.0" encoding="utf-8"?>
<!-- Generator: Adobe Illustrator 19.0.0, SVG Export Plug-In . SVG Version: 6.00 Build 0)  -->
<svg version="1.1" id="Layer_1" xmlns="http://www.w3.org/2000/svg" xmlns:xlink="http://www.w3.org/1999/xlink" x="0px" y="0px"
	 viewBox="235.3 304 177.3 177.3" style="enable-background:new 235.3 304 177.3 177.3;" xml:space="preserve">
<style type="text/css">
	.st0{fill:#3887BE;}
	.st1{fill:#FFFFFF;}
	.st2{fill:none;}
</style>
<circle class="st0" cx="324" cy="392.7" r="88.7"/>
<title>Layer 1</title>
<path class="st1" d="M324.6,381.4c-9.4,0-17.1-7.7-17.1-17.1c0-9.4,7.7-17.1,17.1-17.1s17.1,7.7,17.1,17.1
	C341.6,373.7,334,381.4,324.6,381.4z"/>
<path class="st1" d="M366,366.2c-0.2-7.6-2.2-14.3-6.2-20.5c-3.5-5.5-8-9.9-13.5-13.1c-7.9-4.6-18-6.6-27.3-5.2
	c-11.8,1.8-21.8,8.3-28.2,18.3c-3.9,6.1-5.9,13-6.1,20.6c-0.2,9.4,3.2,16.4,5.7,20.8c0.5,0.9,1.1,1.9,1.6,2.8
	c0.9,1.6,1.8,3.2,2.8,4.9c1.7,2.7,3.4,5.4,5.1,7.9c2.9,4.4,5.9,9,8.5,13.7c6.3,11.3,12.5,25.6,12.5,33c0,4.4,0,6.7,0,8
	c0,1.5,0,1.5,0,1.5v4.8c0,0.8,0.8,1.6,1.6,1.6h5.5c0.8,0,1.6-0.8,1.6-1.6V459c0,0,0,0,0,0c0,0,0-0.6,0-9.6
	c0-11.9,12.3-33.3,21.6-47.3c3.2-4.8,6.5-9.8,9.1-15.4c0.3-0.6,0.6-1.2,0.9-1.8c1.1-2.1,2.2-4.4,3-7
	C365.6,374.1,366.1,370.1,366,366.2z"/>
<path class="st1" d="M356,376.8c-0.6,1.9-1.5,3.7-2.4,5.6c-0.3,0.6-0.6,1.3-1,1.9c-2.4,5-5.5,9.8-8.6,14.3
	c-7.1,10.8-13.9,21.7-18.6,34.9c-2.4-6.6-5.4-13.2-9.3-20.1c-2.8-4.9-5.9-9.6-8.8-14.2c-1.7-2.5-3.4-5.2-5-7.8
	c-0.9-1.4-1.7-2.9-2.6-4.5c-0.5-1-1.1-2-1.7-3c-2.2-3.8-4.7-9.1-4.6-16.3c0.1-6,1.7-11.2,4.7-16c5-7.9,12.8-13,22.1-14.4
	c1.6-0.2,3.2-0.4,4.9-0.4c5.9,0,11.8,1.6,16.7,4.4c4.3,2.5,7.8,5.9,10.6,10.2c3.1,4.9,4.6,9.9,4.8,16
	C357.3,370.7,356.9,373.8,356,376.8z"/>
<path class="st2" d="M352.1,346.1c-2.7-4.3-6.3-7.7-10.6-10.2c-4.9-2.9-10.8-4.4-16.7-4.4c-1.6,0-3.3,0.1-4.9,0.4
	c-9.2,1.4-17.1,6.5-22.1,14.4c-3.1,4.8-4.6,10.1-4.7,16c-0.1,7.2,2.4,12.5,4.6,16.3c0.6,1,1.1,2,1.7,3c0.9,1.6,1.7,3,2.6,4.5
	c1.6,2.6,3.3,5.2,5,7.8c3,4.6,6.1,9.3,8.8,14.2c3.9,6.8,6.9,13.4,9.3,20.1c4.7-13.2,11.5-24.1,18.6-34.9c3-4.6,6.1-9.3,8.6-14.3
	c0.3-0.7,0.6-1.3,1-1.9c1-1.9,1.9-3.7,2.4-5.6c0.9-3,1.3-6.1,1.2-9.1C356.8,356,355.3,350.9,352.1,346.1z M325.1,379.1
	c-9.4,0-17.1-7.7-17.1-17.1c0-9.4,7.7-17.1,17.1-17.1s17.1,7.7,17.1,17.1C342.1,371.4,334.5,379.1,325.1,379.1z"/>
<path class="st0" d="M325.9,356.8c-4.6,0-8.3,3.7-8.3,8.3c0,4.6,3.7,8.3,8.3,8.3s8.3-3.7,8.3-8.3
	C334.2,360.6,330.5,356.8,325.9,356.8z"/>
</svg>
