<?xml version="1.0" encoding="utf-8"?>
<!-- Generator: Adobe Illustrator 16.0.0, SVG Export Plug-In . SVG Version: 6.00 Build 0)  -->
<!DOCTYPE svg PUBLIC "-//W3C//DTD SVG 1.1//EN" "http://www.w3.org/Graphics/SVG/1.1/DTD/svg11.dtd">
<svg version="1.1" id="Layer_1" xmlns="http://www.w3.org/2000/svg" xmlns:xlink="http://www.w3.org/1999/xlink" x="0px" y="0px"
	 width="3555.357px" height="1887px" viewBox="0 0 3555.357 1887" enable-background="new 0 0 3555.357 1887" xml:space="preserve">
<g>
	<path opacity="0.1" d="M1752.823,776.365c-3.577,0.893-7.309,1.371-10.711,2.741c-44.552,17.949-89.271,35.481-133.494,54.283
		c-24.215,10.297-47.754,22.411-71.253,34.436c-14.934,7.643-21.793,21.048-21.876,38.502c-0.029,6.388-0.842,12.896-2.208,19.132
		c-2.931,13.39-10.868,23.109-22.588,28.959c-11.5,5.74-22.347,16.546-36.691,6.713c-1.875-1.284-4.81-1.428-7.202-1.268
		c-23.634,1.583-47.62,1.247-70.78,5.63c-23.799,4.504-46.715,13.943-70.168,20.661c-10.329,2.958-20.952,5.331-31.584,6.352
		c-4.567,0.439-11.686-1.918-13.617-5.423c-1.773-3.22,0.539-10.776,3.369-14.512c7.235-9.551,15.264-18.611,23.899-26.807
		c10.632-10.093,17.574-21.823,21.637-36.273c4.14-14.728,7.526-30.959,16.054-42.736c10.103-13.95,24.165-25.878,38.626-35.05
		c26.32-16.694,54.53-30.104,81.355-45.98c39.687-23.488,78.917-47.82,118.197-72.047c10.89-6.716,21.273-14.329,31.888-21.531
		c-0.365-0.95-0.729-1.898-1.095-2.848c-9.149,0-18.336,0.543-27.437-0.154c-9.191-0.702-13.441,4.26-14.165,12.529
		c-0.929,10.583-8.059,13.21-15.812,14.385c-9.415,1.424-19.033,1.288-28.515,2.317c-23.298,2.531-45.69,8.051-63.972,24.613
		c-10.938,9.909-20.406,21.903-32.249,30.335c-19.539,13.907-40.135,26.319-60.894,38.2c-23.438,13.416-44.601,28.256-54.64,56.118
		c-5.751,15.961-18.252,26.277-32.632,34.203c-9.524,5.25-18.635,11.338-27.794,17.28c-11.497,7.461-20.555,16.652-24.933,30.975
		c-1.86,6.089-8.121,10.936-12.923,15.755c-4.193,4.208-9.102,7.646-13.772,11.316c-9.316,7.32-15.689,18.177-28.411,21.455
		c-22.694,5.848-44.973,13.448-67.507,20.006c-25.511,7.425-51.166,13.352-77.77,16.001c-16.453,1.639-33.864,6.871-47.988,15.552
		c-11.945,7.34-22.229,14.861-36.75,14.892c-4.646,0.01-12.388,4.573-13.219,8.362c-1.355,6.182-3.145,14.919,4.568,19.791
		c6.272,3.964,13.045,7.191,18.867,11.758c3.869,3.037,9.445,8.277,8.994,11.794c-0.967,7.491-3.574,15.166-11.661,19.506
		c-24.297,13.037-49.643,13.693-75.678,8.628c-27.194-5.288-54.285-11.248-81.593-15.761c-10.475-1.732-21.433-0.284-32.17-0.284
		c9.056,5.227,18.332,8.764,27.221,13.158c13.28,6.563,15.229,17.042,4.666,27.356c-5.507,5.381-12.323,9.515-19.023,13.29
		c-5.04,2.838-10.836,4.211-16.295,6.235c2.45,1.248,4.595,1.19,6.733,1.259c26.797,0.867,53.596,1.844,79.638,9.516
		c22.755,6.702,39.371,19.634,42.802,46.063c0.389,2.998,1.847,6.21,3.688,8.586c24.082,31.09,26.103,65.392,14.614,102.104
		c-2.206,7.046-1.58,15.001-3.208,22.31c-2.608,11.71-3.344,25.263-9.707,34.345c-9.233,13.176-21.292,25.756-34.764,33.833
		c-36.335,21.777-73.276,42.837-111.399,60.909c-67.668,32.077-136.764,60.859-204.547,92.677
		c-58.22,27.327-116.616,54.695-172.758,86.256c-51.777,29.111-100.408,64.265-150.947,95.85
		c-19.591,12.24-25.501,34.283-41.32,52.349c1083.888,0,2164.605,0,3246.639,0c-2.435-4.004-3.981-6.737-5.699-9.347
		c-20.599-31.35-41.22-62.685-61.847-94.018c-57.683-87.615-115.296-175.278-173.253-262.694c-3.006-4.532-8.544-8.662-13.617-9.982
		c-11.562-3.006-23.562-5.637-35.407-5.757c-31.377-0.325-62.777,0.582-94.161,1.353c-19.719,0.484-39.443,2.458-59.126,1.966
		c-6.506-0.167-15.566-4.231-18.725-9.562c-5.717-9.657-12.425-9.666-21.131-8.618c-36.98,4.453-73.979,8.728-110.993,12.879
		c-26.618,2.99-53.275,5.609-79.904,8.521c-32.435,3.549-64.858,7.214-97.284,10.86c-25.696,2.888-51.393,5.771-77.08,8.744
		c-24.465,2.831-48.944,5.551-73.366,8.741c-24.724,3.229-49.949,4.646-73.971,10.943c-67.026,17.58-134.843,30.456-203.059,41.36
		c-52.801,8.436-104.782,19.97-155.282,38.649c-36.031,13.329-72.414,25.715-109.003,37.261
		c-33.622,10.607-67.926,18.848-101.581,29.344c-59.054,18.413-117.086,40.611-178.004,51.992
		c-12.995,2.427-26.224,3.512-39.363,5.067c-4.838,0.573-9.323-0.784-8.786-6.881c1.259-14.282,0.948-29.294,5.286-42.586
		c10.085-30.893,36.125-43.423,63.271-52.921c40.511-14.172,82.654-16.388,124.969-17.708c37.556-1.175,75.031-3.172,111.159-16.438
		c17.091-6.276,35.129-9.751,52.747-14.461c44.458-11.896,89.701-21.307,133.182-36.289c51.042-17.593,102.1-34.31,155.077-43.912
		c40.027-7.253,80.172-13.833,120.347-20.159c28.265-4.453,56.624-8.358,85.023-11.765c16.804-2.017,33.766-2.652,50.664-3.788
		c12.198-0.818,22.938-3.951,29.513-16.263c3.13-5.862,7.68-10.877,11.347-16.45c7.579-11.521,12.565-13.648,25.721-10.838
		c10.256,2.193,20.511,4.437,30.832,6.267c12.535,2.223,23.704,0.546,32.134-11.293c5.114-7.181,11.488-13.433,17.604-19.781
		c19.966-20.722,42.903-33.488,72.197-28.223c6.542,1.177,12.996,2.879,21.581,4.809c-14.989-18.222-28.175-35.175-42.411-51.105
		c-5.686-6.357-13.1-11.956-20.771-15.255c-13.629-5.856-28.107-9.525-42.113-14.478c-4.584-1.622-9.663-3.435-13.039-6.782
		c-24.219-24.012-53.934-36.975-85.164-46.828c-63.004-19.878-128.036-26.236-193.315-28.582
		c-35.943-1.293-72.102,1.08-108.054,3.545c-52.528,3.604-103.652,15.412-153.132,34.136c-32.612,12.338-64.01,27.395-89.68,52.767
		c-9.708,9.59-15.7,21.057-12.771,35.376c3.457,16.896,11.62,31.007,24.904,41.792c18.749,15.222,37.336,30.66,55.919,46.106
		c12.153,10.1,23.626,20.87,28.607,37.004c4.209,13.636,0.481,25.506-11.525,32.265c-8.038,4.523-16.841,8.295-25.737,10.312
		c-41.176,9.325-82.829,6.12-124.36,3.549c-31.644-1.959-63.234-4.879-94.86-7.204c-13.825-1.016-27.775-0.809-41.502-2.563
		c-26.88-3.436-52.791,0.31-78.345,8.842c-21.096,7.043-41.87,17.282-63.491,20.006c-40.886,5.143-82.278,5.868-123.454,8.503
		c-20.287,1.297-40.609,2.242-60.834,4.247c-33.688,3.336-67.326,7.273-100.958,11.184c-39.146,4.558-78.21,9.96-117.41,13.874
		c-34.067,3.404-68.46,5.335-102.075-2.929c-12.767-3.139-25.495-9.87-36.172-17.946c-12.037-9.104-10.042-20.5,3.21-28.222
		c5.567-3.243,11.842-6.154,18.068-6.984c23.789-3.173,47.654-5.948,71.563-7.848c13.818-1.099,27.78-0.196,41.675-0.272
		c5.07-0.029,8.718-1.344,6.389-8.052c-11.885-34.253-29.863-63.076-66.463-71.371c-33.622-7.619-67.697-13.118-101.656-19.033
		c-24.346-4.238-48.889-7.595-71.208-19.516c-27.187-14.52-36.141-36.451-24.427-65.806c7.151-17.918,16.521-35.443,27.711-50.927
		c35.266-48.802,82.252-79.711,139.216-94.082c30.232-7.626,60.485-15.173,90.608-23.253c6.136-1.646,11.724-5.514,17.565-8.357
		c-0.28-0.898-0.561-1.796-0.841-2.694c-3.242-0.797-6.565-1.333-9.711-2.432c-12.804-4.472-26.231-7.728-38.151-14.051
		c-15.107-8.014-15.037-20.964,0.072-28.602c10.908-5.511,23.155-8.8,35.155-11.121c16.126-3.12,29.465-7.5,42.322-21.05
		c35.034-36.927,81.345-44.461,128.936-44.388c19.356,0.031,38.7,2.437,58.07,2.941c3.323,0.086,7.777-3.169,9.935-6.241
		c7.095-10.102,13.561-20.706,19.923-31.343c8.456-14.138,19.137-27.57,24.218-42.975c6.438-19.515,16.541-33.1,34.376-41.423
		c17.165-8.011,34.216-16.376,50.853-25.509c33.014-18.123,65.67-36.948,98.559-55.315c6.45-3.602,13.285-6.452,19.944-9.646
		c3.588-0.845,7.251-1.434,10.75-2.57c35.855-11.644,72.39-18.218,110.085-16.764c5.651,0.217,9.991,0.511,11.425,8.036
		c0.562,2.942,5.085,6.038,8.415,7.276c32.391,12.05,65.642,6.974,98.842,5.578c19.538-0.821,39.251,0.481,58.764,2.271
		c13.979,1.283,23.617,9.992,28.343,24.271c3.877,11.718,12.064,18.6,23.801,20.123c9.136,1.188,18.372,1.975,27.572,2.102
		c15.396,0.214,21.06-7.739,14.898-22.77c-4.176-10.188-10.658-19.499-16.98-28.538c-6.549-9.359-14.149-17.918-21.813-27.478
		c17.703-6.853,33.456-3.303,49.276-1.526c16.269,1.828,31.856,8.1,49.062,3.637c41.267-10.706,83.246-6.436,125.101-4.175
		c30.428,1.643,60.921,1.941,91.365,3.314c18.926,0.854,37.991,1.424,56.647,4.446c8.89,1.439,17.568,7.409,25.244,12.975
		c6.466,4.692,11.375,11.738,16.916,17.792c12.686,13.854,28.498,18.64,46.287,16.888c6.35-0.625,12.243-2.892,12.408-11.475
		c0.265-13.639-14.413-30.566-27.292-30.632c-6.223-0.032-9.963-2.303-11.535-8.557c-2.251-8.955-8.375-13.565-16.271-16.974
		c-11.64-5.023-23.02-10.729-34.356-16.476c-7.199-3.65-6.89-9.577-2.36-15.054c2.9-3.503,7.093-5.836,10.707-8.696
		c-0.645-0.997-1.289-1.995-1.932-2.99c-60.678,0-121.355,0-182.252,0c4.003,2.924,7.783,5.687,11.562,8.45
		c-0.142,1.08-0.285,2.16-0.426,3.241c-5.154,0.927-10.322,2.731-15.46,2.636c-26.284-0.477-52.369,0.31-77.875,8.061
		c-27.091,8.232-54.317,10.247-81.987,2.447c-7.703-2.172-15.772-3.536-22.81,4.57c-2.907,3.349-9.797,4.527-14.676,4.115
		c-14.928-1.26-29.793-3.554-44.622-5.86c-11.65-1.813-23.212-4.242-35.193-6.467c0.1,17.737-0.579,19.076-15.828,18.27
		c-25.788-1.365-51.5-4.442-77.294-5.463c-41.233-1.629-80.866,7.458-119.14,22.879
		C1797.455,756.293,1775.235,766.593,1752.823,776.365z M1153.901,1496.781c6.501,11.395,15.833,14.171,25.066,16.222
		c37.691,8.369,75.489,3.384,113.123-0.453c33.897-3.455,67.594-9.015,101.468-12.792c34.818-3.881,69.702-7.336,104.63-9.87
		c43.602-3.165,87.33-4.528,130.902-8.026c18.508-1.489,37.319-4.546,54.998-10.241c26.126-8.424,51.497-21.323,79.037-21.735
		c40.004-0.599,80.081,1.616,120.076,3.703c29.781,1.553,59.441,5.835,89.223,6.979c24.282,0.929,48.711-0.245,72.979-1.981
		c10.644-0.763,24.147-1.204,28.896-13.413c5.268-13.553-3.814-24.2-13.014-32.593c-14.359-13.1-29.562-25.189-44.315-37.825
		c-15.928-13.64-33.386-25.886-42.966-45.848c-11.939-24.883-11.073-47.325,9.285-64.586c15.437-13.085,31.771-25.745,49.386-35.181
		c79.242-42.445,165.132-57.583,252.897-61.769c49.809-2.373,99.899-1.911,149.475,5.483c38.204,5.698,76.525,11.36,114.187,19.934
		c36.155,8.233,71.226,21.295,101.086,45.256c12.284,9.857,25.539,15.813,40.12,20.506c21.759,7.004,43.017,14.991,58.704,34.435
		c17.253,21.384,36.162,41.306,54.186,62.019c6.623,7.608,13.404,15.219,18.916,23.676c3.324,5.102,5.262,11.697,6.105,17.879
		c0.657,4.802-0.363,10.513-7.791,10.229c-19.172-0.726-38.342-2.462-55.44-12.08c-19.21-10.81-20.79-15.402-16.031-33.126
		c-9.745-7.772-20.12-9.285-30.753-2.353c-6.214,4.056-12.362,8.52-17.643,13.776c-9.807,9.759-18.276,21.087-28.625,30.107
		c-6.782,5.91-15.659,11.857-24.012,12.576c-15.468,1.336-31.317-0.426-46.843-2.356c-7.466-0.928-12.231-0.119-16.057,7.026
		c-10.038,18.763-24.761,30.946-45.934,32.579c-21.181,1.636-42.407,2.634-63.598,4.141c-10.111,0.719-20.286,1.364-30.266,3.093
		c-37.229,6.445-74.416,13.168-111.569,20.076c-37.463,6.969-75.147,13.002-112.209,21.846c-29.19,6.964-57.583,17.583-86.33,26.576
		c0.235,0.863,0.472,1.726,0.709,2.587c9.223-1.55,18.455-3.053,27.669-4.655c45.425-7.897,90.893-15.536,136.253-23.815
		c50.764-9.269,99.934-26.794,151.738-31.014c30.282-2.465,60.381-7.354,90.598-10.812c25.655-2.938,51.375-5.236,77.035-8.101
		c26.255-2.932,52.456-6.416,78.719-9.268c27.191-2.953,54.446-5.258,81.641-8.177c33.298-3.577,66.569-7.428,99.834-11.297
		c14.639-1.703,29.246-3.663,43.847-5.667c8.349-1.147,16.629-3.501,24.981-3.753c13.644-0.413,17.662,3.649,22.491,16.739
		c1.055,2.858,5.938,5.996,9.005,5.934c17.85-0.354,35.676-2.235,53.523-2.443c28.951-0.336,57.917,0.082,86.873,0.506
		c7.657,0.112,15.298,1.413,24.714,2.341c-2.653-4.571-3.948-7.074-5.483-9.405c-160.725-244.098-321.496-488.169-482.077-732.373
		c-3.503-5.33-7.224-6.822-12.927-6.79c-33.657,0.185-67.33,0.582-100.973-0.166c-12.57-0.28-22.752,1.372-31.537,12.195
		c-7.402,9.125-8.523,14.046,2.184,16.298c26.989,5.676,42.915,31.25,68.336,39.093c0.798,0.245,1.513,1.148,2.038,1.915
		c5.191,7.54,11.176,14.651,15.301,22.787c6.586,12.99,3.098,22.431-10.484,25.545c-11.134,2.553-22.985,2.242-34.521,2.287
		c-28.166,0.106-49.764-13.167-67.632-35.441c-5.337-6.656-13.946-12.487-21.964-14.293c-12.436-2.799-25.649-1.96-38.54-2.419
		c-38.763-1.385-77.583-1.74-116.276-4.248c-31.146-2.019-62.162-3.888-92.571,4.549c-15.744,4.369-30.81,3.532-46.39,0.278
		c-11.412-2.386-23.098-3.335-37.033-5.25c2.983,4.447,4.153,6.265,5.395,8.031c9.289,13.178,19.461,25.785,27.659,39.663
		c9.583,16.222,3.601,30.27-14.065,34.125c-22.019,4.806-44.002,2.465-65.716-3.049c-15.964-4.053-27.763-12.475-33.049-30.037
		c-1.578-5.239-7.377-11.101-12.424-12.754c-8.879-2.91-18.723-4.115-28.066-3.697c-23.616,1.053-47.156,3.945-70.768,5.091
		c-24.885,1.206-48.502-6.803-72.268-13.057c-2.859-0.752-6.343-3.456-7.402-6.164c-2.107-5.386-5.577-6.278-10.154-5.711
		c-3.652,0.449-7.249,1.506-10.907,1.756c-40.623,2.774-78.252,16.319-113.979,35.695c-43.679,23.69-86.825,48.454-130.33,72.499
		c-10.938,6.045-17.866,14.418-22.023,26.939c-4.272,12.87-10.792,25.054-17.292,36.966c-10.481,19.207-21.643,38.016-32.828,56.792
		c-1.397,2.341-4.654,4.86-7.099,4.916c-16.353,0.37-32.786,1.043-49.066-0.195c-25.425-1.934-50.736-5.722-76.09,0.485
		c-29.539,7.232-56.161,19.082-72.853,47.809c-1.63,2.808-5.672,4.737-8.966,5.71c-6.775,2.004-13.803,3.059-20.72,4.549
		c-11.4,2.457-22.911,4.502-34.125,7.686c-3.666,1.039-6.552,5.073-9.794,7.738c2.685,3.224,4.786,7.963,8.168,9.386
		c9.614,4.042,19.601,7.444,29.725,9.736c9.068,2.05,18.512,2.289,28.442,3.399c-2.514,13.042-10.14,21.064-20.213,24.409
		c-28.9,9.598-57.798,20.178-87.48,26.036c-53.775,10.609-99.454,34.837-135.742,77.657c-15.414,18.188-28.616,38.079-36.041,61.349
		c-8.709,27.292,0.19,47.784,26.375,56.499c19.186,6.386,39.305,9.961,59.193,13.737c30.473,5.785,61.455,9.086,91.574,16.354
		c32.566,7.857,61.467,23.272,77.556,56.806c8.42,17.55,17.28,34.867,25.856,52.336c0.64,1.304,0.582,2.985,0.9,4.794
		C1262.273,1494.415,1208.235,1484.125,1153.901,1496.781z M586.471,1185.288c3.167,0.192,5.392,0.942,7.18,0.322
		c7.134-2.476,13.954-6.164,21.218-7.959c13.891-3.429,28.05-8.372,42.015-8.097c18.156,0.356,36.187,5.533,54.352,7.973
		c13.019,1.749,25.792,0.051,36.959-7.923c8.33-5.949,7.896-13.923-1.14-18.428c-6.312-3.144-13.167-5.132-19.847-7.427
		c-13.358-4.589-26.811-8.889-40.103-13.675c-2.281-0.824-3.96-3.47-5.919-5.273c2.049-2.075,3.783-5.28,6.202-6.009
		c6.392-1.922,13.063-3.771,19.65-3.873c26.858-0.421,53.73-0.443,80.588-0.025c8.8,0.138,17.67,1.532,26.342,3.261
		c21.608,4.315,42.982,10.235,64.734,13.283c9.439,1.32,20.171-1.267,29.229-4.977c8.058-3.299,7.287-10.522-0.532-14.849
		c-5.4-2.984-11.511-4.659-16.667-7.993c-2.94-1.902-7.088-6.86-6.413-8.896c3.42-10.315-1.743-15.213-8.729-20.583
		c-8.04-6.177-7.159-12.501,2.46-16.002c9.153-3.334,19.057-4.364,28.352-7.347c11.216-3.596,23.201-6.415,32.934-12.768
		c13.482-8.803,26.961-13.897,42.937-14.447c20.77-0.721,41.813-1.617,62.133-5.715c27.234-5.494,53.921-13.995,80.75-21.568
		c3.59-1.013,9.022-3.712,9.476-6.394c1.361-8.021,7.166-9.888,12.495-12.694c8.781-4.623,17.776-8.804,26.526-13.486
		c7.919-4.236,14.599-10.096,16.252-19.752c2.782-16.247,12.843-25.716,26.237-32.437c7.47-3.751,14.721-8.077,22.418-11.214
		c18.688-7.614,31.226-21.023,37.653-40.848c3.992-12.315,11.477-22.046,21.838-29.066c11.823-8.01,23.792-15.836,36.056-23.08
		c25.63-15.14,52.916-27.546,73.506-50.694c27.178-30.553,61.293-44.704,100.807-46.131c16.351-0.592,23.493-6.188,27.163-21.203
		c-3.543,0-6.795,0-10.049,0c-22.542,0-45.082,0-67.624,0c-179.094,0-358.188,0.012-537.281-0.043
		c-6.027-0.002-10.76,0.453-14.878,6.769c-104.848,160.776-209.958,321.362-315.008,481.992
		C589.42,1180.036,588.282,1182.193,586.471,1185.288z M230.239,1729.037c0.583,0.565,1.167,1.138,1.75,1.707
		c4.282-2.433,8.686-4.658,12.827-7.326c76.089-48.982,156.575-89.021,238.217-126.538c80.89-37.173,162.619-72.366,243.29-110.041
		c33.837-15.803,66.437-34.781,98.581-54.158c22.721-13.696,32.292-36.335,27.086-57.37c-3.221-13.016-8.582-25.452-11.878-38.453
		c-2.318-9.145-3.99-18.826-3.806-28.221c0.34-17.337,2.5-34.623,3.453-51.952c0.986-17.968-4.948-33.448-21.44-40.081
		c-14.066-5.657-29.465-9.83-44.434-10.452c-27.879-1.156-55.984-0.675-83.789,1.742c-33.477,2.91-66.724,8.655-100.098,12.934
		c-8.498,1.086-17.104,1.265-28.68,2.068C452.249,1389.637,341.245,1559.335,230.239,1729.037z M1285.637,977.119
		c0.596,0.703,1.19,1.407,1.787,2.112c1.706-0.531,3.461-0.925,5.11-1.609c51.411-21.337,105.12-28.943,160.059-29.167
		c2.76-0.011,5.536,0.595,8.277,0.436c4.024-0.233,8.503,0.145,11.951-1.571c11.447-5.706,15.182-16.642,16.979-28.985
		c1.693-11.625,1.677-24.821,7.258-34.18c6.113-10.25,16.61-19.517,27.223-24.655c44.425-21.514,89.272-42.188,134.634-61.452
		c31.054-13.187,63.332-23.204,94.837-35.278c22.075-8.461,43.242-19.963,65.768-26.562c27.188-7.968,55.177-14.146,83.215-17.407
		c21.939-2.551,44.486,0.334,66.751,1.166c13.426,0.501,26.829,1.692,41.957,2.686c-2.143-6.597-3.706-11.413-5.802-17.869
		c7.917-0.684,15.003-2.682,21.637-1.615c21.382,3.441,42.574,8.136,63.887,12.073c7.621,1.409,15.692,4.4,21.471-4.923
		c1.228-1.984,4.855-3.303,7.375-3.303c11.8,0.002,23.82-0.78,35.35,1.256c17.604,3.111,34.628,5.518,52.515,0.755
		c17.667-4.702,35.878-7.368,53.967-10.086c11.51-1.73,23.233-1.921,34.861-2.801c-8.936-3.757-18.12-6.638-27.307-6.65
		c-212.089-0.255-424.178-0.128-636.267-0.431c-8.979-0.012-15.913,2.567-22.413,8.312c-3.04,2.687-6.175,5.35-9.571,7.493
		c-38.555,24.342-76.838,49.174-115.868,72.654c-30.806,18.533-62.505,35.457-93.894,52.925
		c-29.594,16.471-51.632,38.999-56.768,75.457c-2.863,20.333-14.483,34.8-28.604,48.001
		C1298.559,960.871,1292.386,969.331,1285.637,977.119z M2017.042,1566.898c-0.3-1.135-0.601-2.271-0.9-3.404
		c-21.348,5.522-42.965,10.106-63.978,16.777c-33.039,10.486-66.247,19.577-100.86,21.708c-34.413,2.118-68.909,3.127-103.238,6.188
		c-23.633,2.113-46.686,8.092-67.819,20.321c-14.783,8.553-23.107,21.802-26.817,38.604c-1.436,6.493,0.633,9.188,7.321,7.503
		c20.305-5.112,40.919-9.087,60.938-15.201c39.819-12.163,79.167-26.006,118.994-38.133c40.116-12.216,80.676-22.838,120.842-34.874
		C1980.273,1580.767,1998.552,1573.446,2017.042,1566.898z M694.776,1192.508c-30.611-7.656-58.462-11.082-86.023,0.121
		c-3.247,1.32-5.508,5.283-8.225,8.021c0.561,1.083,1.123,2.17,1.684,3.254C632.153,1200.217,662.094,1196.53,694.776,1192.508z"/>
	<path opacity="0.2" fill-rule="evenodd" clip-rule="evenodd" d="M1752.732,776.25c-6.657,3.197-13.492,6.047-19.942,9.649
		c-32.889,18.367-65.545,37.192-98.559,55.315c-16.636,9.133-33.688,17.499-50.853,25.509
		c-17.836,8.323-27.938,21.908-34.376,41.423c-5.081,15.404-15.762,28.836-24.218,42.975c-6.362,10.637-12.828,21.242-19.923,31.343
		c-2.158,3.071-6.612,6.327-9.935,6.241c-19.37-0.504-38.714-2.911-58.07-2.941c-47.59-0.074-93.902,7.461-128.936,44.388
		c-12.857,13.551-26.195,17.93-42.322,21.05c-12,2.321-24.247,5.61-35.155,11.121c-15.109,7.637-15.18,20.588-0.072,28.602
		c11.92,6.323,25.347,9.579,38.151,14.051c3.146,1.099,6.469,1.635,9.711,2.432c0.28,0.898,0.561,1.796,0.841,2.694
		c-5.841,2.844-11.429,6.711-17.565,8.357c-30.123,8.08-60.376,15.627-90.608,23.253c-56.964,14.371-103.95,45.28-139.216,94.082
		c-11.19,15.483-20.561,33.009-27.711,50.927c-11.714,29.354-2.76,51.286,24.427,65.806c22.319,11.921,46.862,15.277,71.208,19.516
		c33.958,5.915,68.034,11.414,101.656,19.033c36.6,8.295,54.578,37.118,66.463,71.371c2.329,6.708-1.319,8.022-6.389,8.052
		c-13.896,0.076-27.857-0.826-41.675,0.272c-23.91,1.899-47.774,4.675-71.563,7.848c-6.226,0.83-12.501,3.741-18.068,6.984
		c-13.251,7.722-15.247,19.117-3.21,28.222c10.677,8.076,23.405,14.808,36.172,17.946c33.614,8.264,68.007,6.333,102.075,2.929
		c39.2-3.914,78.264-9.316,117.41-13.874c33.632-3.91,67.27-7.848,100.958-11.184c20.225-2.005,40.547-2.95,60.834-4.247
		c41.176-2.635,82.568-3.36,123.454-8.503c21.621-2.724,42.395-12.963,63.491-20.006c25.554-8.532,51.465-12.277,78.345-8.842
		c13.727,1.755,27.677,1.548,41.502,2.563c31.625,2.325,63.216,5.245,94.86,7.204c41.531,2.571,83.184,5.776,124.36-3.549
		c8.896-2.017,17.7-5.788,25.737-10.312c12.007-6.759,15.734-18.629,11.525-32.265c-4.981-16.134-16.454-26.904-28.607-37.004
		c-18.583-15.446-37.17-30.885-55.919-46.106c-13.284-10.785-21.447-24.896-24.904-41.792c-2.929-14.319,3.062-25.786,12.771-35.376
		c25.67-25.372,57.068-40.429,89.68-52.767c49.48-18.724,100.604-30.531,153.132-34.136c35.953-2.465,72.111-4.838,108.054-3.545
		c65.279,2.345,130.312,8.703,193.315,28.582c31.23,9.853,60.945,22.816,85.164,46.828c3.376,3.348,8.455,5.16,13.039,6.782
		c14.006,4.952,28.484,8.621,42.113,14.478c7.672,3.299,15.086,8.897,20.771,15.255c14.236,15.931,27.422,32.884,42.411,51.105
		c-8.585-1.93-15.039-3.632-21.581-4.809c-29.294-5.266-52.231,7.501-72.197,28.223c-6.115,6.349-12.489,12.601-17.604,19.781
		c-8.43,11.839-19.599,13.516-32.134,11.293c-10.321-1.83-20.576-4.073-30.832-6.267c-13.155-2.811-18.142-0.684-25.721,10.838
		c-3.667,5.573-8.217,10.588-11.347,16.45c-6.575,12.312-17.314,15.444-29.513,16.263c-16.898,1.136-33.86,1.771-50.664,3.788
		c-28.399,3.406-56.759,7.312-85.023,11.765c-40.175,6.326-80.32,12.906-120.347,20.159
		c-52.978,9.603-104.036,26.319-155.077,43.912c-43.48,14.982-88.724,24.394-133.182,36.289
		c-17.618,4.71-35.656,8.185-52.747,14.461c-36.128,13.267-73.603,15.264-111.159,16.438c-42.315,1.32-84.458,3.536-124.969,17.708
		c-27.146,9.498-53.187,22.028-63.271,52.921c-4.337,13.292-4.026,28.304-5.286,42.586c-0.538,6.097,3.947,7.454,8.786,6.881
		c13.139-1.556,26.369-2.641,39.363-5.067c60.918-11.381,118.95-33.579,178.004-51.992c33.655-10.496,67.958-18.736,101.581-29.344
		c36.589-11.546,72.972-23.932,109.003-37.261c50.5-18.68,102.481-30.214,155.282-38.649c68.215-10.904,136.032-23.78,203.059-41.36
		c24.022-6.297,49.248-7.715,73.971-10.943c24.422-3.19,48.901-5.91,73.366-8.741c25.688-2.974,51.384-5.856,77.08-8.744
		c32.426-3.646,64.85-7.312,97.284-10.86c26.629-2.912,53.286-5.531,79.904-8.521c37.014-4.151,74.013-8.426,110.993-12.879
		c8.706-1.048,15.414-1.039,21.131,8.618c3.158,5.331,12.219,9.396,18.725,9.562c19.683,0.492,39.407-1.481,59.126-1.966
		c31.384-0.771,62.784-1.678,94.161-1.353c11.846,0.12,23.845,2.751,35.407,5.757c5.073,1.32,10.611,5.45,13.617,9.982
		c57.957,87.416,115.57,175.079,173.253,262.694c20.627,31.333,41.248,62.668,61.847,94.018c1.718,2.609,3.265,5.343,5.699,9.347
		c-1082.034,0-2162.751,0-3246.639,0c15.819-18.065,21.729-40.108,41.32-52.349c50.54-31.585,99.17-66.738,150.947-95.85
		c56.142-31.561,114.539-58.929,172.758-86.256c67.783-31.817,136.879-60.6,204.547-92.677
		c38.124-18.072,75.064-39.132,111.399-60.909c13.472-8.077,25.531-20.657,34.764-33.833c6.363-9.082,7.099-22.635,9.707-34.345
		c1.628-7.309,1.001-15.264,3.208-22.31c11.489-36.713,9.468-71.015-14.614-102.104c-1.841-2.376-3.299-5.588-3.688-8.586
		c-3.431-26.429-20.046-39.362-42.802-46.063c-26.042-7.671-52.841-8.648-79.638-9.516c-2.139-0.069-4.283-0.011-6.733-1.259
		c5.459-2.024,11.255-3.397,16.295-6.235c6.701-3.775,13.516-7.909,19.023-13.29c10.563-10.314,8.614-20.793-4.666-27.356
		c-8.89-4.395-18.165-7.932-27.221-13.158c10.737,0,21.695-1.448,32.17,0.284c27.308,4.514,54.398,10.474,81.593,15.761
		c26.036,5.065,51.381,4.408,75.678-8.628c8.087-4.34,10.694-12.015,11.661-19.506c0.451-3.517-5.125-8.757-8.994-11.794
		c-5.822-4.567-12.595-7.794-18.867-11.758c-7.712-4.871-5.923-13.609-4.568-19.791c0.831-3.79,8.572-8.353,13.219-8.362
		c14.521-0.031,24.804-7.552,36.75-14.892c14.124-8.682,31.535-13.913,47.988-15.552c26.604-2.649,52.258-8.576,77.77-16.001
		c22.535-6.558,44.813-14.158,67.507-20.006c12.722-3.278,19.095-14.135,28.411-21.455c4.67-3.669,9.58-7.108,13.772-11.316
		c4.803-4.819,11.063-9.666,12.923-15.755c4.378-14.323,13.437-23.513,24.933-30.975c9.159-5.942,18.27-12.03,27.794-17.28
		c14.38-7.926,26.88-18.242,32.632-34.203c10.04-27.862,31.202-42.702,54.64-56.118c20.759-11.881,41.355-24.292,60.894-38.2
		c11.843-8.432,21.312-20.426,32.249-30.335c18.282-16.562,40.673-22.082,63.972-24.613c9.482-1.029,19.1-0.893,28.515-2.317
		c7.754-1.175,14.884-3.802,15.812-14.385c0.724-8.269,4.974-13.23,14.165-12.529c9.101,0.697,18.288,0.154,27.437,0.154
		c0.366,0.95,0.73,1.897,1.095,2.848c-10.615,7.202-20.998,14.814-31.888,21.531c-39.28,24.228-78.51,48.56-118.197,72.047
		c-26.826,15.877-55.036,29.287-81.355,45.98c-14.461,9.172-28.523,21.101-38.626,35.05c-8.528,11.777-11.914,28.008-16.054,42.736
		c-4.062,14.451-11.004,26.18-21.637,36.273c-8.635,8.196-16.665,17.256-23.899,26.807c-2.83,3.736-5.143,11.292-3.369,14.512
		c1.931,3.505,9.05,5.862,13.617,5.423c10.632-1.021,21.255-3.394,31.584-6.352c23.453-6.718,46.369-16.157,70.168-20.661
		c23.161-4.383,47.146-4.047,70.78-5.63c2.392-0.16,5.327-0.016,7.202,1.268c14.345,9.833,25.191-0.973,36.691-6.713
		c11.721-5.85,19.657-15.569,22.588-28.959c1.366-6.236,2.179-12.744,2.208-19.132c0.083-17.455,6.942-30.859,21.876-38.502
		c23.499-12.025,47.038-24.139,71.253-34.436c44.223-18.802,88.942-36.334,133.494-54.283c3.402-1.37,7.134-1.848,10.711-2.741
		L1752.732,776.25z"/>
	<path opacity="0.1" fill-rule="evenodd" clip-rule="evenodd" d="M1153.901,1496.781c54.333-12.656,108.372-2.366,161.812-10.162
		c-0.318-1.809-0.26-3.49-0.9-4.794c-8.576-17.469-17.436-34.786-25.856-52.336c-16.088-33.533-44.989-48.948-77.556-56.806
		c-30.119-7.269-61.102-10.569-91.574-16.354c-19.888-3.776-40.007-7.352-59.193-13.737c-26.185-8.715-35.084-29.207-26.375-56.499
		c7.425-23.27,20.627-43.161,36.041-61.349c36.288-42.819,81.967-67.048,135.742-77.657c29.683-5.857,58.58-16.438,87.48-26.036
		c10.074-3.345,17.699-11.367,20.213-24.409c-9.93-1.11-19.374-1.349-28.442-3.399c-10.124-2.292-20.111-5.694-29.725-9.736
		c-3.382-1.423-5.483-6.162-8.168-9.386c3.242-2.665,6.128-6.699,9.794-7.738c11.214-3.183,22.725-5.229,34.125-7.686
		c6.917-1.49,13.945-2.545,20.72-4.549c3.293-0.974,7.335-2.903,8.966-5.71c16.692-28.727,43.314-40.576,72.853-47.809
		c25.354-6.208,50.666-2.419,76.09-0.485c16.28,1.239,32.713,0.565,49.066,0.195c2.444-0.056,5.701-2.575,7.099-4.916
		c11.185-18.776,22.347-37.586,32.828-56.792c6.5-11.913,13.02-24.096,17.292-36.966c4.157-12.521,11.085-20.895,22.023-26.939
		c43.505-24.045,86.651-48.809,130.33-72.499c35.727-19.376,73.356-32.921,113.979-35.695c3.658-0.25,7.254-1.308,10.907-1.756
		c4.577-0.567,8.046,0.325,10.154,5.711c1.06,2.708,4.543,5.412,7.402,6.164c23.765,6.254,47.382,14.263,72.268,13.057
		c23.612-1.146,47.152-4.038,70.768-5.091c9.343-0.417,19.187,0.787,28.066,3.697c5.047,1.653,10.847,7.515,12.424,12.754
		c5.286,17.562,17.084,25.984,33.049,30.037c21.714,5.514,43.697,7.855,65.716,3.049c17.667-3.855,23.649-17.903,14.065-34.125
		c-8.197-13.877-18.37-26.485-27.659-39.663c-1.242-1.766-2.411-3.583-5.395-8.031c13.935,1.915,25.621,2.864,37.033,5.25
		c15.58,3.254,30.646,4.091,46.39-0.278c30.409-8.437,61.425-6.568,92.571-4.549c38.692,2.508,77.513,2.863,116.276,4.248
		c12.891,0.459,26.104-0.38,38.54,2.419c8.018,1.806,16.627,7.637,21.964,14.293c17.868,22.274,39.466,35.548,67.632,35.441
		c11.535-0.045,23.387,0.267,34.521-2.287c13.582-3.114,17.07-12.555,10.484-25.545c-4.125-8.136-10.109-15.248-15.301-22.787
		c-0.525-0.766-1.24-1.669-2.038-1.915c-25.421-7.843-41.347-33.417-68.336-39.093c-10.707-2.252-9.586-7.174-2.184-16.298
		c8.785-10.823,18.967-12.475,31.537-12.195c33.643,0.747,67.315,0.351,100.973,0.166c5.703-0.033,9.424,1.46,12.927,6.79
		c160.581,244.204,321.353,488.275,482.077,732.373c1.535,2.331,2.83,4.834,5.483,9.405c-9.416-0.928-17.057-2.229-24.714-2.341
		c-28.956-0.424-57.922-0.842-86.873-0.506c-17.848,0.208-35.674,2.09-53.523,2.443c-3.066,0.062-7.95-3.075-9.005-5.934
		c-4.829-13.09-8.848-17.152-22.491-16.739c-8.353,0.252-16.633,2.605-24.981,3.753c-14.601,2.004-29.208,3.964-43.847,5.667
		c-33.265,3.869-66.536,7.72-99.834,11.297c-27.194,2.919-54.449,5.224-81.641,8.177c-26.263,2.852-52.464,6.336-78.719,9.268
		c-25.66,2.864-51.38,5.162-77.035,8.101c-30.217,3.459-60.315,8.348-90.598,10.812c-51.804,4.22-100.975,21.745-151.738,31.014
		c-45.36,8.279-90.828,15.918-136.253,23.815c-9.214,1.603-18.446,3.105-27.669,4.655c-0.237-0.861-0.475-1.724-0.709-2.587
		c28.746-8.993,57.14-19.612,86.33-26.576c37.062-8.844,74.747-14.877,112.209-21.846c37.154-6.908,74.341-13.631,111.569-20.076
		c9.979-1.729,20.154-2.374,30.266-3.093c21.19-1.507,42.417-2.505,63.598-4.141c21.173-1.633,35.896-13.816,45.934-32.579
		c3.825-7.146,8.591-7.954,16.057-7.026c15.525,1.931,31.375,3.692,46.843,2.356c8.353-0.719,17.229-6.666,24.012-12.576
		c10.349-9.021,18.818-20.349,28.625-30.107c5.28-5.257,11.429-9.721,17.643-13.776c10.633-6.933,21.008-5.42,30.753,2.353
		c-4.759,17.724-3.179,22.316,16.031,33.126c17.099,9.618,36.269,11.354,55.44,12.08c7.428,0.283,8.448-5.428,7.791-10.229
		c-0.844-6.182-2.781-12.777-6.105-17.879c-5.512-8.457-12.293-16.067-18.916-23.676c-18.023-20.713-36.933-40.635-54.186-62.019
		c-15.688-19.443-36.945-27.431-58.704-34.435c-14.581-4.692-27.836-10.648-40.12-20.506
		c-29.86-23.961-64.931-37.023-101.086-45.256c-37.661-8.574-75.982-14.235-114.187-19.934
		c-49.575-7.394-99.666-7.855-149.475-5.483c-87.765,4.186-173.656,19.324-252.897,61.769
		c-17.616,9.436-33.949,22.096-49.386,35.181c-20.358,17.261-21.224,39.703-9.285,64.586c9.58,19.962,27.038,32.208,42.966,45.848
		c14.753,12.636,29.956,24.726,44.315,37.825c9.2,8.393,18.282,19.04,13.014,32.593c-4.749,12.209-18.252,12.65-28.896,13.413
		c-24.268,1.736-48.697,2.91-72.979,1.981c-29.782-1.144-59.442-5.426-89.223-6.979c-39.995-2.087-80.072-4.302-120.076-3.703
		c-27.54,0.412-52.91,13.312-79.037,21.735c-17.679,5.695-36.49,8.752-54.998,10.241c-43.573,3.498-87.301,4.861-130.902,8.026
		c-34.929,2.534-69.812,5.989-104.63,9.87c-33.874,3.777-67.571,9.337-101.468,12.792c-37.634,3.837-75.432,8.822-113.123,0.453
		C1169.734,1510.952,1160.403,1508.176,1153.901,1496.781z"/>
	<path opacity="0.1" fill-rule="evenodd" clip-rule="evenodd" d="M586.471,1185.288c1.811-3.095,2.949-5.252,4.274-7.276
		c105.05-160.63,210.16-321.216,315.008-481.992c4.118-6.315,8.851-6.771,14.878-6.769c179.093,0.055,358.187,0.043,537.281,0.043
		c22.542,0,45.082,0,67.624,0c3.253,0,6.505,0,10.049,0c-3.67,15.016-10.812,20.611-27.163,21.203
		c-39.514,1.428-73.629,15.578-100.807,46.131c-20.59,23.147-47.876,35.554-73.506,50.694c-12.263,7.243-24.232,15.069-36.056,23.08
		c-10.361,7.02-17.846,16.751-21.838,29.066c-6.427,19.824-18.966,33.234-37.653,40.848c-7.697,3.137-14.948,7.463-22.418,11.214
		c-13.395,6.721-23.456,16.19-26.237,32.437c-1.653,9.656-8.333,15.516-16.252,19.752c-8.75,4.682-17.746,8.863-26.526,13.486
		c-5.329,2.807-11.134,4.673-12.495,12.694c-0.454,2.682-5.886,5.381-9.476,6.394c-26.829,7.574-53.517,16.075-80.75,21.568
		c-20.32,4.098-41.363,4.995-62.133,5.715c-15.976,0.55-29.455,5.645-42.937,14.447c-9.733,6.353-21.718,9.171-32.934,12.768
		c-9.295,2.982-19.199,4.013-28.352,7.347c-9.62,3.501-10.5,9.825-2.46,16.002c6.986,5.369,12.149,10.267,8.729,20.583
		c-0.675,2.036,3.473,6.994,6.413,8.896c5.155,3.334,11.267,5.009,16.667,7.993c7.818,4.327,8.59,11.55,0.532,14.849
		c-9.057,3.71-19.789,6.297-29.229,4.977c-21.752-3.048-43.125-8.968-64.734-13.283c-8.672-1.729-17.542-3.123-26.342-3.261
		c-26.858-0.418-53.729-0.396-80.588,0.025c-6.587,0.102-13.258,1.951-19.65,3.873c-2.419,0.729-4.153,3.935-6.202,6.009
		c1.958,1.804,3.638,4.45,5.919,5.273c13.292,4.786,26.744,9.086,40.103,13.675c6.68,2.295,13.536,4.283,19.847,7.427
		c9.037,4.504,9.47,12.479,1.14,18.428c-11.167,7.974-23.94,9.672-36.959,7.923c-18.166-2.44-36.196-7.616-54.352-7.973
		c-13.965-0.274-28.124,4.668-42.015,8.097c-7.264,1.795-14.084,5.483-21.218,7.959
		C591.863,1186.23,589.638,1185.48,586.471,1185.288z"/>
	<path opacity="0.1" fill-rule="evenodd" clip-rule="evenodd" d="M230.239,1729.037c111.006-169.702,222.01-339.4,331.079-506.142
		c11.576-0.803,20.182-0.981,28.68-2.068c33.375-4.279,66.621-10.024,100.098-12.934c27.804-2.417,55.91-2.898,83.789-1.742
		c14.969,0.622,30.368,4.795,44.434,10.452c16.492,6.632,22.427,22.113,21.44,40.081c-0.954,17.329-3.113,34.615-3.453,51.952
		c-0.185,9.395,1.487,19.076,3.806,28.221c3.297,13.001,8.657,25.438,11.878,38.453c5.206,21.035-4.365,43.674-27.086,57.37
		c-32.144,19.377-64.743,38.355-98.581,54.158c-80.671,37.675-162.4,72.868-243.29,110.041
		c-81.642,37.518-162.128,77.556-238.217,126.538c-4.142,2.668-8.545,4.894-12.827,7.326
		C231.405,1730.175,230.822,1729.603,230.239,1729.037z"/>
	<path opacity="0.1" fill-rule="evenodd" clip-rule="evenodd" d="M1285.637,977.119c6.75-7.788,12.922-16.249,20.374-23.217
		c14.121-13.201,25.741-27.668,28.604-48.001c5.136-36.458,27.174-58.986,56.768-75.457c31.389-17.468,63.088-34.393,93.894-52.925
		c39.03-23.48,77.313-48.312,115.868-72.654c3.396-2.144,6.531-4.806,9.571-7.493c6.5-5.746,13.435-8.325,22.413-8.312
		c212.089,0.303,424.178,0.176,636.267,0.431c9.187,0.012,18.371,2.893,27.307,6.65c-11.628,0.88-23.351,1.07-34.861,2.801
		c-18.088,2.718-36.3,5.384-53.967,10.086c-17.887,4.763-34.911,2.355-52.515-0.755c-11.53-2.036-23.55-1.254-35.35-1.256
		c-2.521,0-6.147,1.319-7.375,3.303c-5.778,9.323-13.85,6.332-21.471,4.923c-21.313-3.938-42.505-8.632-63.887-12.073
		c-6.634-1.067-13.72,0.931-21.637,1.615c2.096,6.456,3.659,11.272,5.802,17.869c-15.128-0.994-28.53-2.185-41.957-2.686
		c-22.265-0.831-44.812-3.716-66.751-1.166c-28.038,3.261-56.026,9.439-83.215,17.407c-22.525,6.599-43.693,18.1-65.768,26.562
		c-31.506,12.074-63.783,22.091-94.837,35.278c-45.362,19.264-90.209,39.938-134.634,61.452
		c-10.613,5.138-21.11,14.405-27.223,24.655c-5.582,9.359-5.565,22.555-7.258,34.18c-1.797,12.343-5.532,23.279-16.979,28.985
		c-3.447,1.716-7.927,1.338-11.951,1.571c-2.741,0.159-5.518-0.447-8.277-0.436c-54.939,0.223-108.647,7.83-160.059,29.167
		c-1.648,0.684-3.404,1.078-5.11,1.609C1286.827,978.526,1286.232,977.822,1285.637,977.119z"/>
	<path opacity="0.2" fill-rule="evenodd" clip-rule="evenodd" d="M1752.823,776.365c22.412-9.772,44.631-20.072,67.282-29.199
		c38.273-15.421,77.906-24.509,119.14-22.879c25.793,1.021,51.506,4.099,77.294,5.463c15.25,0.806,15.928-0.532,15.828-18.27
		c11.981,2.225,23.543,4.654,35.193,6.467c14.829,2.306,29.693,4.601,44.622,5.86c4.879,0.412,11.769-0.767,14.676-4.115
		c7.038-8.106,15.106-6.742,22.81-4.57c27.67,7.799,54.896,5.785,81.987-2.447c25.506-7.751,51.59-8.538,77.875-8.061
		c5.138,0.095,10.306-1.708,15.46-2.636c0.142-1.081,0.285-2.161,0.426-3.241c-3.778-2.763-7.558-5.526-11.562-8.45
		c60.897,0,121.574,0,182.252,0c0.643,0.995,1.287,1.993,1.932,2.99c-3.614,2.86-7.807,5.193-10.707,8.696
		c-4.529,5.477-4.839,11.403,2.36,15.054c11.337,5.747,22.717,11.452,34.356,16.476c7.896,3.409,14.02,8.019,16.271,16.974
		c1.572,6.254,5.312,8.525,11.535,8.557c12.879,0.066,27.557,16.994,27.292,30.632c-0.165,8.583-6.059,10.85-12.408,11.475
		c-17.789,1.752-33.602-3.034-46.287-16.888c-5.541-6.055-10.45-13.1-16.916-17.792c-7.676-5.566-16.354-11.536-25.244-12.975
		c-18.656-3.022-37.721-3.592-56.647-4.446c-30.444-1.373-60.937-1.671-91.365-3.314c-41.855-2.261-83.833-6.531-125.101,4.175
		c-17.207,4.462-32.794-1.809-49.062-3.637c-15.821-1.777-31.573-5.327-49.276,1.526c7.664,9.56,15.264,18.119,21.813,27.478
		c6.323,9.039,12.805,18.35,16.98,28.538c6.162,15.031,0.498,22.984-14.898,22.77c-9.2-0.127-18.436-0.914-27.572-2.102
		c-11.737-1.523-19.924-8.405-23.801-20.123c-4.727-14.279-14.365-22.988-28.343-24.271c-19.513-1.79-39.227-3.092-58.764-2.271
		c-33.2,1.396-66.451,6.472-98.842-5.578c-3.33-1.239-7.854-4.334-8.415-7.276c-1.435-7.524-5.774-7.819-11.425-8.036
		c-37.695-1.454-74.23,5.121-110.085,16.764c-3.5,1.137-7.162,1.726-10.75,2.57C1752.732,776.25,1752.823,776.365,1752.823,776.365z
		"/>
	<path opacity="0.1" fill-rule="evenodd" clip-rule="evenodd" d="M2017.042,1566.898c-18.49,6.548-36.768,13.868-55.516,19.489
		c-40.166,12.036-80.726,22.658-120.842,34.874c-39.827,12.127-79.175,25.97-118.994,38.133
		c-20.019,6.114-40.633,10.089-60.938,15.201c-6.688,1.686-8.756-1.01-7.321-7.503c3.71-16.802,12.035-30.051,26.817-38.604
		c21.133-12.229,44.186-18.208,67.819-20.321c34.329-3.062,68.825-4.07,103.238-6.188c34.613-2.131,67.821-11.222,100.86-21.708
		c21.013-6.671,42.629-11.255,63.978-16.777C2016.441,1564.628,2016.741,1565.764,2017.042,1566.898z"/>
	<path opacity="0.1" fill-rule="evenodd" clip-rule="evenodd" d="M694.776,1192.508c-32.682,4.022-62.624,7.709-92.564,11.396
		c-0.561-1.084-1.123-2.171-1.684-3.254c2.717-2.738,4.978-6.701,8.225-8.021C636.314,1181.427,664.166,1184.852,694.776,1192.508z"
		/>
</g>
<g>
	<path opacity="0.3" fill-rule="evenodd" clip-rule="evenodd" fill="#FFFEF9" d="M2867.145,924.59
		c8.256,44.411,27.09,141.53,35.513,185.91c0.782,4.121,4.046,9.046-1.482,12.634c-0.606,0.104-1.193,0.039-1.763-0.193
		c-12.643-3.349-25.294-3.255-37.954-0.1c-4.007,0.734-8.014,1.469-12.021,2.203c-1.984-6.256-4.599-12.389-5.853-18.788
		c-8.027-40.99-27.035-139.478-34.949-180.491"/>
	<path opacity="0.3" fill-rule="evenodd" clip-rule="evenodd" d="M2974.501,954.787"/>
	<path opacity="0.3" fill-rule="evenodd" clip-rule="evenodd" d="M2875.765,935.532"/>
	<path opacity="0.3" fill-rule="evenodd" clip-rule="evenodd" fill="#FFFEF9" d="M2808.635,925.765
		c-1.946-10.133-3.354-20.394-5.834-30.393c-21.812-87.916-81.267-153.14-154.413-202.586
		c-25.944-17.538-73.653-33.194-105.105-30.033c4.63-1.175,9.259-2.349,13.889-3.522c15.655-0.07,31.313-0.331,46.964-0.091
		c4.579,0.07,9.23,1.226,13.687,2.467c49.653,13.83,99.467,32.017,140.323,64.301c48.097,38.005,70.518,95.906,97.071,149.35
		c2.188,4.402,3.664,9.273,4.74,14.09c2.612,11.699,4.693,23.516,7.188,35.242"/>
	<path opacity="0.2" fill-rule="evenodd" clip-rule="evenodd" fill="#FFFEF9" d="M1833.435,895.31
		c26.081-99.095,83.781-203.387,146.97-283.18c36.356-45.909,89.52-67.09,144.56-81.901
		c-96.314,25.924-230.578,244.636-255.58,334.317c-14.769,52.977,45.021,50.988-36.165,31.582
		C1833.291,895.855,1833.363,895.582,1833.435,895.31z"/>
	<path fill-rule="evenodd" clip-rule="evenodd" d="M1835.684,897.154c11.233,0.657,22.467,1.314,33.7,1.972
		c13.469,3.299,26.136,8.503,37.854,15.957c4.665,4.107,9.33,8.216,13.996,12.324c1.22,1.559,2.452,3.107,3.658,4.676
		c22.939,29.854,27.807,62.284,12.041,96.631c-6.355,13.844-15.166,26.585-23.159,39.645c-9.21,15.049-18.751,29.895-28.148,44.828
		c-0.754,1.235-1.508,2.471-2.262,3.706c-4.319,8.237-8.832,16.38-12.917,24.73c-8.335,17.037-13.053,34.886-11.681,54.081
		c0.354,4.969,0.321,10.037-0.274,14.971c-0.27,2.234-1.856,5.381-3.688,6.176c-9.146,3.968-15.665-0.36-15.815-10.085
		c-0.113-7.331,0.201-14.676-0.127-21.994c-0.237-5.295-0.617-10.716-1.97-15.806c-5.071-19.09-12.824-37.097-23.112-53.986
		c-0.864-1.911-1.728-3.822-2.592-5.734c-6.924-10.969-13.893-21.908-20.759-32.912c-8.632-13.833-17.367-27.605-25.726-41.603
		c-20.952-35.084-14.229-78.692,10.238-104.87c0.888-0.95,1.446-2.208,2.158-3.322c8.421-9.533,18.771-16.375,30.23-21.67
		C1816.782,902.297,1826.233,899.726,1835.684,897.154z M1895.724,1059.256c8.297-12.44,15.729-25.501,22.904-38.636
		c7.662-14.027,8.728-29.252,5.529-44.709c-7.153-34.574-38.584-58.98-75.722-59.054c-59.026-0.176-95.416,61.052-65.045,110.606
		c6.612,10.79,12.924,21.782,19.948,32.297c16.127,24.137,31.716,48.534,42.507,75.658c0.594,1.493,1.72,2.775,2.599,4.156
		c1.217-1.385,2.918-2.571,3.577-4.184"/>
	<path opacity="0.2" fill-rule="evenodd" clip-rule="evenodd" fill="#FFFEF9" d="M1833.891,897.306
		c-6.062,3.88-17.876,6.541-25.034,6.595c-21.389-53.665-79.187-90.656-122.402-125.448
		c-52.708-42.436-104.691-85.265-160.051-124.309c-34.601-24.403-65.953-53.914-103.318-74.227
		c-15.131-8.226-88.048-44.757-100.604-39.143c49.127-21.967,116.952,32.868,154.428,58.589
		C1609.428,690.319,1730.372,771.21,1833.891,897.306z"/>
	<path fill-rule="evenodd" clip-rule="evenodd" d="M1373.08,920.877c-12.054,21.057-24.533,41.886-36.025,63.245
		c-8.976,16.682-13.67,34.659-11.631,53.924c0.314,2.968,0.08,5.992,0.138,8.989c0.089,4.653-1.473,7.67-6.784,7.766
		c-5.747,0.104-8.137-1.484-8.832-6.987c-0.416-3.291-0.572-6.668-0.363-9.976c0.98-15.483-3.174-29.899-10.369-43.195
		c-9.652-17.836-20.182-35.21-30.722-52.546c-4.473-7.356-9.93-14.115-14.938-21.146c-4.786-8.383-10.377-16.413-14.221-25.207
		c-18.495-42.311,5.577-89.392,50.561-99.631c42.353-9.641,86.068,17.024,96.364,59.087c3.988,16.293,3.269,32.426-4.225,47.814
		C1379.117,909.002,1376.068,914.925,1373.08,920.877z M1315.747,990.985c0.914-1.189,2.195-2.245,2.687-3.589
		c8.166-22.37,20.545-42.483,32.958-62.631c5.921-9.608,11.316-19.631,15.913-29.93c2.646-5.928,4.253-12.732,4.555-19.225
		c1.651-35.603-27.3-64.739-63.859-64.836c-45.35-0.12-72.625,45.543-50.807,85.366c4.948,9.031,10.567,17.743,16.453,26.202"/>
	<path opacity="0.2" fill-rule="evenodd" clip-rule="evenodd" d="M2313.58,691.302c33.976-12.714,67.682-25.529,105.59-26.604
		c4.018,0.64,8.034,1.279,12.051,1.919c-37.786,14.293-75.572,28.586-113.358,42.88c-11.547,4.378-23.093,8.757-34.64,13.135
		c-29.616,11.142-59.213,22.336-88.854,33.411c-34.937,13.054-69.912,26.005-104.87,39.001c-7.206-0.71-14.463-1.111-21.594-2.276
		c-3.006-0.491-5.749-2.594-8.611-3.964c34.45-13.312,68.887-26.659,103.354-39.926c38.201-14.703,76.431-29.334,114.647-43.996
		C2289.389,700.354,2301.483,695.828,2313.58,691.302z"/>
	<path opacity="0.3" fill-rule="evenodd" clip-rule="evenodd" d="M1247.367,658.158c1.359-20.225,1.554-40.623,4.525-60.607
		c1.723-11.588,5.966-23.871,12.605-33.374c7.567-10.831,18.354-20.102,33.229-21.031c1.552-0.097,3.144,0.435,4.717,0.675
		c-0.763,1.321-1.194,3.214-2.339,3.877c-12.815,7.426-18.189,19.865-22.25,33.053c-2.23,7.244-4.237,14.646-5.361,22.126
		c-4.139,27.529-3.329,55.185-0.067,82.688c3.489,29.411,7.942,58.708,12.097,88.038c5.37,22.511,4.082,23.923-9.617,27.601
		c-7.297,1.959-8.308,4.499-10.098-17.168C1257.827,742.32,1249.875,700.726,1247.367,658.158z"/>
	<path opacity="0.3" fill-rule="evenodd" clip-rule="evenodd" d="M2313.58,691.302c-12.096,4.526-24.19,9.053-36.286,13.579
		c-0.493-1.573-0.715-3.303-1.519-4.696c-16.502-28.587-29.52-59.214-50.045-85.45c-1.807-2.31-3.117-5.009-4.657-7.527
		c6.409,1.229,12.773,2.961,19.241,3.536c5.847,0.521,11.973,0.187,15.377-6.135c8.2,11.593,17.094,22.767,24.421,34.888
		c8.731,14.441,16.123,29.694,24.088,44.599C2306.243,687.918,2308.047,692.03,2313.58,691.302z"/>
	<path opacity="0.3" fill-rule="evenodd" clip-rule="evenodd" d="M2131.368,531.037c0.688-1.347,1.375-2.692,2.062-4.038
		c10.884,1.134,21.783,2.13,32.638,3.493c2.873,0.36,5.712,1.623,8.377,2.874c4.503,2.111,8.713,4.886,13.295,6.78
		c16.1,6.657,27.991,18.61,39.657,30.898c-2.07,3.881-5.757,3.881-9.42,3.905c-7.56,0.049-15.12,0.08-22.681,0.118
		c-1.313-0.985-2.826-1.79-3.911-2.983C2174.615,553.658,2153.915,541.001,2131.368,531.037z"/>
	<path opacity="0.3" fill-rule="evenodd" clip-rule="evenodd" d="M2195.295,575.068c7.561-0.038,15.121-0.069,22.681-0.118
		c3.663-0.024,7.35-0.024,9.42-3.905c12.475,8.622,20.074,21.354,28.295,33.563c-3.404,6.321-9.53,6.655-15.377,6.135
		c-6.468-0.575-12.832-2.308-19.241-3.536C2212.48,596.494,2203.888,585.781,2195.295,575.068z"/>
	<path opacity="0.3" fill-rule="evenodd" clip-rule="evenodd" d="M2431.22,666.616c-4.017-0.64-8.033-1.279-12.051-1.919
		c2.607-0.4,5.203-1.059,7.821-1.162c40.747-1.603,81.496-3.146,122.246-4.652c2.638-0.097,5.29,0.222,7.935,0.348
		c-4.63,1.174-9.259,2.348-13.889,3.522c-16.859,0.665-33.717,1.403-50.58,1.979C2472.211,665.431,2451.715,665.994,2431.22,666.616
		z"/>
	<path fill-rule="evenodd" clip-rule="evenodd" d="M2763.353,1285.044c-1.293-2.69-2.586-5.381-3.878-8.071
		c-13.218-38.584-5.146-73.542,18.042-105.926c1.925-2.124,3.851-4.249,5.775-6.374c6.629-5.911,13.002-12.146,19.943-17.664
		c13.658-10.858,29.804-16.733,46.201-21.965c4.008-0.734,8.015-1.469,12.021-2.203c12.651,0.033,25.303,0.066,37.954,0.1
		c0.569,0.232,1.156,0.297,1.763,0.193c9.795,3.088,19.98,5.29,29.32,9.411c50.51,22.286,73.75,76.536,55.603,128.691
		c-1.091,3.135-2.114,6.292-3.169,9.439c-1.754,2.839-3.507,5.677-5.26,8.516c-16.09,28.934-38.51,53.324-57.464,80.195
		c-11.876,16.836-23.04,34.189-34.104,51.577c-14.421,22.665-22.261,47.449-22.495,74.467c-0.012,1.329-0.11,2.659-0.172,3.988
		c-0.703,15.07-4.087,17.658-19.146,15.157c-4.502-0.748-6.377-3.043-6.043-7.443c0.554-7.294,0.452-14.707,1.76-21.863
		c3.484-19.075-0.769-37.054-6.839-54.816c-8.529-24.958-20.021-48.524-33.375-71.268
		C2787.342,1327.983,2775.476,1306.438,2763.353,1285.044z M2967.115,1223.304c-1.391-29.242-16.808-54.589-47.627-68.143
		c-38.479-16.923-75.199-11.2-107.739,15.338c-30.98,25.266-45.72,69.742-22.058,110.586c9.686,16.717,18.919,33.699,28.779,50.311
		c14.156,23.85,26.936,48.315,35.725,74.712c0.421,1.264,0.839,2.535,1.363,3.758c1.4,3.269,3.186,3.155,4.789,0.255
		c3.225-5.831,6.167-11.819,9.434-17.626c15.086-26.825,34.062-50.907,52.674-75.29c11.705-15.334,22.476-31.417,33.056-47.563
		C2963.744,1257.076,2966.989,1242.791,2967.115,1223.304z"/>
	<path fill-rule="evenodd" clip-rule="evenodd" d="M2899.413,1122.94c-12.651-0.033-25.303-0.066-37.954-0.1
		C2874.119,1119.686,2886.77,1119.592,2899.413,1122.94z"/>
	<path opacity="0.2" fill-rule="evenodd" clip-rule="evenodd" d="M1883.314,894.861c17.496-22.554,57.624-40.536,81.176-57.093
		c29.92-21.033,60.621-36.287,94.803-48.965c2.862,1.37,5.605,3.473,8.611,3.964c7.131,1.165,14.388,1.566,21.594,2.276
		c-8.609,3.494-17.254,6.907-25.814,10.518c-4.278,1.805-8.764,3.448-12.546,6.05c-45.03,30.979-89.989,62.062-134.811,93.344
		c-3.621,2.527-6.087,6.713-9.089,10.129c-11.718-7.454-24.385-12.658-37.854-15.957
		C1874.437,899.042,1879.672,899.556,1883.314,894.861z"/>
	<path opacity="0.4" fill-rule="evenodd" clip-rule="evenodd" d="M2305.484,769.054c-5.441-12.501-10.77-25.055-16.404-37.469
		c-1.457-3.209-3.879-5.981-5.857-8.954c11.547-4.378,23.093-8.757,34.64-13.136c6.422,15.709,12.602,31.525,19.493,47.024
		c1.229,2.767,5.408,4.221,8.227,6.28C2331.781,762.098,2318.562,765.123,2305.484,769.054z"/>
	<path fill-rule="evenodd" clip-rule="evenodd" d="M2305.484,769.054c13.078-3.931,26.297-6.956,40.098-6.254
		c17.401,1.838,32.696,8.225,45.151,20.816c21.01,21.239,26.292,53.542,12.4,80.026c-5.531,10.545-12.193,20.519-18.671,30.539
		c-7.562,11.699-15.485,23.166-23.252,34.733c-5.935,11.104-12.29,22.01-17.674,33.374c-4.598,9.704-6.381,20.244-6.082,31.077
		c0.101,3.649,0.043,7.347-0.438,10.955c-0.663,4.978-3.078,6.548-8.303,6.317c-4.432-0.194-6.759-2.369-6.827-6.814
		c-0.036-2.324-0.275-4.719,0.164-6.966c2.938-15.006-0.453-29.144-6.051-42.854c-3.747-9.179-8.226-18.059-12.377-27.072
		c-10.441-17.757-20.82-35.553-31.34-53.265c-24.013-40.432-3.765-84.438,29.02-101.935
		C2302.757,770.956,2304.093,769.952,2305.484,769.054z M2329.007,945.511c0.531,1.44,1.782,2.616,2.698,3.915
		c1.179-1.415,2.745-2.655,3.479-4.272c9.142-20.138,21.627-38.205,34.234-56.238c6.286-8.99,12.045-18.368,17.707-27.772
		c21.923-36.415-3.57-83.1-49.297-82.917c-44.61-0.483-75.746,47.25-52.432,86.538c3.736,6.297,6.959,12.907,10.835,19.112"/>
	<path fill-rule="evenodd" clip-rule="evenodd" d="M1889.45,989.775c-0.079,21.966-18.243,39.48-40.682,39.226
		c-22.278-0.253-40.146-18.143-40.036-40.087c0.109-22.012,18.273-39.556,40.651-39.264
		C1871.617,949.939,1889.529,967.877,1889.45,989.775z M1849.14,1008.983c11.271,0.064,19.833-8.126,20.068-19.197
		c0.24-11.267-9.37-20.476-21.329-20.441c-10.466,0.031-19.74,9.327-19.793,19.84
		C1828.033,999.722,1837.813,1008.919,1849.14,1008.983z"/>
	<path fill-rule="evenodd" clip-rule="evenodd" d="M1311.887,901.388c-18.589-0.221-33.502-15.586-33.142-34.146
		c0.33-17.016,13.901-30.057,31.037-29.826c18.358,0.248,33.644,15.984,33.247,34.229
		C1342.66,888.636,1329.093,901.593,1311.887,901.388z M1326.672,870.093c-0.055-8.844-8.003-16.55-16.857-16.344
		c-8.095,0.188-14.522,6.595-14.711,14.663c-0.213,9.077,7.11,16.616,16.254,16.73
		C1319.857,885.249,1326.724,878.5,1326.672,870.093z"/>
	<path fill-rule="evenodd" clip-rule="evenodd" d="M2822.695,1232.512c0.835-17.353,11.163-32.382,29.527-41.495
		c18.05-8.956,36.184-8.338,52.838,3.71c12.119,8.769,17.879,21.212,17.492,36.214c-0.513,19.92-14.354,38.618-34.541,45.814
		c-19.799,7.059-38.051,4.347-53.404-10.906C2826.422,1257.718,2822.739,1247.591,2822.695,1232.512z M2893.882,1243.208
		c5.516-11.184,4.468-19.236-3.516-27.015c-10.382-10.114-25.387-8.852-36.769,3.095c-6.792,7.892-7.942,16.662-3.052,25.728
		c4.518,8.374,12.234,12.019,21.557,11.477C2881.55,1255.943,2889.223,1251.898,2893.882,1243.208z"/>
	<path fill-rule="evenodd" clip-rule="evenodd" d="M2335.383,864.546c-16.702,0.054-30.017-13.122-29.948-29.637
		c0.072-17.279,14.768-31.594,32.211-31.378c16.265,0.202,29.261,13.059,29.459,29.145
		C2367.319,849.92,2352.817,864.489,2335.383,864.546z M2336.702,819.137c-8.286-0.017-15.313,6.776-15.503,14.987
		c-0.195,8.5,6.541,15.126,15.13,14.882c8.279-0.235,15.106-7.258,15.026-15.455
		C2351.276,825.487,2344.837,819.153,2336.702,819.137z"/>
</g>
</svg>
