<?xml version="1.0" encoding="utf-8"?>
<!-- Generator: Adobe Illustrator 16.0.0, SVG Export Plug-In . SVG Version: 6.00 Build 0)  -->
<!DOCTYPE svg PUBLIC "-//W3C//DTD SVG 1.0//EN" "http://www.w3.org/TR/2001/REC-SVG-20010904/DTD/svg10.dtd">
<svg version="1.0" id="Layer_1" xmlns="http://www.w3.org/2000/svg" xmlns:xlink="http://www.w3.org/1999/xlink" x="0px" y="0px"
	 width="655px" height="144px" viewBox="0 0 655 144" enable-background="new 0 0 655 144" xml:space="preserve">
<title>Layer 1</title>
<g>
	<path d="M15.288,31.5H1.596C0.672,31.5,0,30.744,0,29.904V25.2c0-0.84,0.672-1.596,1.596-1.596h36.12
		c0.924,0,1.596,0.756,1.596,1.596v4.704c0,0.84-0.672,1.596-1.596,1.596H24.024v49.308c0,0.84-0.756,1.596-1.596,1.596h-5.544
		c-0.84,0-1.596-0.756-1.596-1.596V31.5z"/>
	<path d="M48.383,25.2c0-0.84,0.672-1.596,1.596-1.596h33.6c0.924,0,1.596,0.756,1.596,1.596v4.704c0,0.84-0.672,1.596-1.596,1.596
		H57.035v17.136h22.428c0.84,0,1.596,0.756,1.596,1.596v4.704c0,0.924-0.756,1.596-1.596,1.596H57.035v18.06h26.544
		c0.924,0,1.596,0.756,1.596,1.596v4.62c0,0.84-0.672,1.596-1.596,1.596h-33.6c-0.924,0-1.596-0.756-1.596-1.596V25.2z"/>
	<path d="M97.858,25.2c0-0.84,0.672-1.596,1.596-1.596h22.848c10.08,0,18.312,7.98,18.312,17.976
		c0,7.728-5.124,14.112-12.432,17.052l11.508,21.336c0.588,1.092,0,2.436-1.428,2.436h-6.552c-0.672,0-1.176-0.42-1.344-0.756
		l-11.172-22.26H106.51v21.42c0,0.84-0.756,1.596-1.596,1.596h-5.46c-0.924,0-1.596-0.756-1.596-1.596V25.2z M121.63,52.164
		c5.46,0,10.248-4.62,10.248-10.416c0-5.46-4.788-9.996-10.248-9.996h-14.952v20.412H121.63z"/>
	<path d="M153.718,25.2c0-0.84,0.672-1.596,1.596-1.596h22.849c10.079,0,18.312,7.98,18.312,17.976
		c0,7.728-5.124,14.112-12.432,17.052l11.508,21.336c0.588,1.092,0,2.436-1.428,2.436h-6.553c-0.672,0-1.176-0.42-1.344-0.756
		l-11.172-22.26H162.37v21.42c0,0.84-0.757,1.596-1.597,1.596h-5.46c-0.924,0-1.596-0.756-1.596-1.596V25.2z M177.489,52.164
		c5.46,0,10.248-4.62,10.248-10.416c0-5.46-4.788-9.996-10.248-9.996h-14.951v20.412H177.489z"/>
	<path d="M201.682,80.22l25.788-56.532c0.252-0.504,1.008-0.924,1.428-0.924h0.84c0.42,0,1.176,0.42,1.429,0.924l25.619,56.532
		c0.504,1.092-0.168,2.184-1.428,2.184h-5.292c-1.008,0-1.596-0.504-1.932-1.26l-5.208-11.508h-27.468
		c-1.681,3.864-3.444,7.644-5.124,11.508c-0.252,0.588-0.925,1.26-1.933,1.26h-5.292C201.85,82.404,201.178,81.312,201.682,80.22z
		 M239.733,62.412l-10.332-23.016h-0.42l-10.248,23.016H239.733z"/>
	<path d="M348.889,80.22l25.787-56.532c0.252-0.504,1.008-0.924,1.428-0.924h0.84c0.42,0,1.176,0.42,1.43,0.924l25.619,56.532
		c0.504,1.092-0.168,2.184-1.428,2.184h-5.293c-1.007,0-1.595-0.504-1.931-1.26l-5.207-11.508h-27.469
		c-1.68,3.864-3.443,7.644-5.123,11.508c-0.252,0.588-0.926,1.26-1.934,1.26h-5.291C349.057,82.404,348.385,81.312,348.889,80.22z
		 M386.94,62.412l-10.332-23.016h-0.42L365.94,62.412H386.94z"/>
	<path d="M417.348,31.5h-13.691c-0.924,0-1.596-0.756-1.596-1.596V25.2c0-0.84,0.672-1.596,1.596-1.596h36.119
		c0.924,0,1.596,0.756,1.596,1.596v4.704c0,0.84-0.672,1.596-1.596,1.596h-13.691v49.308c0,0.84-0.756,1.596-1.596,1.596h-5.545
		c-0.84,0-1.596-0.756-1.596-1.596V31.5z"/>
	<path d="M459.936,31.5h-13.693c-0.924,0-1.596-0.756-1.596-1.596V25.2c0-0.84,0.672-1.596,1.596-1.596h36.121
		c0.924,0,1.596,0.756,1.596,1.596v4.704c0,0.84-0.672,1.596-1.596,1.596h-13.691v49.308c0,0.84-0.756,1.596-1.598,1.596h-5.543
		c-0.84,0-1.596-0.756-1.596-1.596V31.5z"/>
	<path d="M493.031,25.2c0-0.84,0.672-1.596,1.596-1.596h33.6c0.924,0,1.596,0.756,1.596,1.596v4.704c0,0.84-0.672,1.596-1.596,1.596
		h-26.545v17.136h22.428c0.84,0,1.598,0.756,1.598,1.596v4.704c0,0.924-0.758,1.596-1.598,1.596h-22.428v18.06h26.545
		c0.924,0,1.596,0.756,1.596,1.596v4.62c0,0.84-0.672,1.596-1.596,1.596h-33.6c-0.924,0-1.596-0.756-1.596-1.596V25.2z"/>
	<path d="M542.506,25.2c0-0.84,0.672-1.596,1.596-1.596h22.848c10.08,0,18.311,7.98,18.311,17.976
		c0,7.728-5.123,14.112-12.432,17.052l11.508,21.336c0.588,1.092,0,2.436-1.428,2.436h-6.551c-0.672,0-1.176-0.42-1.344-0.756
		l-11.174-22.26h-12.684v21.42c0,0.84-0.756,1.596-1.596,1.596h-5.459c-0.924,0-1.596-0.756-1.596-1.596V25.2z M566.277,52.164
		c5.459,0,10.248-4.62,10.248-10.416c0-5.46-4.789-9.996-10.248-9.996h-14.953v20.412H566.277z"/>
	<path d="M598.365,24.276c0-0.84,0.756-1.512,1.596-1.512h2.1l36.457,42.168h0.084V25.2c0-0.84,0.672-1.596,1.596-1.596h5.375
		c0.84,0,1.598,0.756,1.598,1.596v56.532c0,0.84-0.758,1.512-1.598,1.512h-2.184L606.934,39.9h-0.084v40.908
		c0,0.84-0.672,1.596-1.596,1.596h-5.293c-0.84,0-1.596-0.756-1.596-1.596V24.276z"/>
	<path d="M302.572,56.388c-9.412,0-17.068-7.657-17.068-17.068s7.657-17.069,17.068-17.069s17.068,7.657,17.068,17.069
		S311.983,56.388,302.572,56.388z M302.572,31.001c-4.587,0-8.318,3.732-8.318,8.319s3.731,8.318,8.318,8.318
		s8.318-3.731,8.318-8.318S307.159,31.001,302.572,31.001z M343.167,39.169c-0.182-7.586-2.195-14.284-6.155-20.477
		c-3.5-5.475-8.049-9.873-13.52-13.072c-7.945-4.646-17.968-6.575-27.27-5.171c-11.782,1.777-21.784,8.282-28.165,18.317
		c-3.889,6.116-5.936,13.03-6.084,20.551c-0.188,9.448,3.178,16.41,5.727,20.825c0.541,0.937,1.061,1.88,1.578,2.819
		c0.879,1.595,1.789,3.245,2.795,4.858c1.676,2.688,3.416,5.354,5.099,7.931c2.898,4.438,5.896,9.027,8.537,13.71
		c6.347,11.251,12.494,25.55,12.494,33.027c0,4.374,0,6.729,0,8.013c0,1.517,0,1.53,0,1.53v4.778c0,0.84,0.756,1.596,1.596,1.596
		h5.543c0.842,0,1.598-0.756,1.598-1.596v-4.778c0,0,0,0,0-0.002c0-0.035,0.002-0.597,0.023-9.581
		c0.029-11.937,12.322-33.33,21.552-47.307c3.181-4.815,6.469-9.795,9.145-15.354c0.294-0.61,0.597-1.212,0.898-1.812
		c1.079-2.146,2.194-4.366,2.994-7.027C342.718,47.062,343.261,43.1,343.167,39.169z M333.171,48.43
		c-0.579,1.93-1.479,3.719-2.431,5.613c-0.325,0.646-0.65,1.293-0.966,1.949c-2.418,5.024-5.541,9.753-8.561,14.326
		c-7.124,10.788-13.893,21.687-18.592,34.897c-2.381-6.641-5.439-13.225-9.292-20.055c-2.78-4.93-5.856-9.641-8.832-14.196
		c-1.658-2.539-3.373-5.165-5-7.774c-0.882-1.414-1.695-2.891-2.557-4.454c-0.546-0.99-1.094-1.983-1.663-2.969
		c-2.196-3.806-4.699-9.095-4.557-16.278c0.117-5.977,1.662-11.219,4.721-16.029c5.001-7.866,12.844-12.966,22.085-14.359
		c1.6-0.241,3.236-0.363,4.866-0.363c5.866,0,11.79,1.575,16.682,4.436c4.264,2.493,7.817,5.935,10.564,10.231
		c3.116,4.874,4.636,9.95,4.779,15.973C334.491,42.344,334.059,45.474,333.171,48.43z"/>
	<path opacity="0.15" d="M458.088,111.186c9.336-3.346,16.105-7.08,20.691-11.416c4.055-3.831,5.926-7.641,5.564-11.322
		c-0.527-5.343-6.107-10.39-15.279-13.698c-11.615-4.188-27.725-5.592-45.357-3.95c-10.748,1-21.025,3.121-30.545,6.299
		c-11.965,3.995-17.983,8.41-21.473,11.386c-0.738,0.631-1.502,1.256-2.266,1.879c-1.295,1.058-2.632,2.151-3.848,3.27
		c-2.024,1.863-3.968,3.744-5.849,5.563c-3.238,3.131-6.587,6.37-10.336,9.5c-9.006,7.519-21.98,16.269-31.331,19.492
		c-5.469,1.885-8.414,2.901-10.02,3.454c-1.896,0.654-1.913,0.658-1.913,0.658l-5.973,2.06c-1.051,0.363-1.394,1.006-0.725,1.361
		l4.419,2.331c0.671,0.354,2.22,0.345,3.271-0.017l5.973-2.059c0,0,0,0,0.004-0.002c0.046-0.015,0.748-0.255,11.997-4.12
		c14.946-5.132,51.497-9.183,76.333-11.327c8.555-0.737,17.402-1.501,26.488-2.771c0.996-0.139,1.99-0.272,2.98-0.404
		c3.543-0.471,7.209-0.959,11.176-1.77C447.857,114.399,453.242,112.921,458.088,111.186z"/>
	<path fill="#FFFFFF" d="M329.641,23.405c-2.748-4.296-6.301-7.739-10.564-10.231c-4.893-2.86-10.816-4.436-16.683-4.436
		c-1.63,0-3.267,0.122-4.866,0.363c-9.241,1.394-17.084,6.493-22.085,14.359c-3.059,4.81-4.604,10.053-4.721,16.029
		c-0.143,7.183,2.36,12.472,4.557,16.277c0.569,0.986,1.117,1.979,1.663,2.969c0.861,1.564,1.675,3.041,2.557,4.455
		c1.627,2.609,3.342,5.234,5,7.773c2.976,4.556,6.052,9.266,8.832,14.196c3.853,6.829,6.911,13.414,9.292,20.055
		c4.699-13.21,11.468-24.11,18.593-34.897c3.02-4.572,6.143-9.302,8.561-14.326c0.314-0.656,0.641-1.303,0.965-1.949
		c0.953-1.894,1.852-3.683,2.432-5.613c0.887-2.956,1.318-6.086,1.248-9.051C334.276,33.355,332.756,28.279,329.641,23.405z
		 M302.572,56.389c-9.411,0-17.068-7.657-17.068-17.068c0-9.412,7.657-17.069,17.068-17.069s17.069,7.657,17.069,17.069
		C319.641,48.731,311.983,56.389,302.572,56.389z"/>
</g>
<g>
</g>
<g>
</g>
<g>
</g>
<g>
</g>
<g>
</g>
<g>
</g>
</svg>
